<svg width="25" height="25" viewBox="0 0 25 25" fill="none" xmlns="http://www.w3.org/2000/svg">
<path d="M22.9584 0H2.22217C1.27201 0 0.5 0.782804 0.5 1.74376V22.4422C0.5 23.4031 1.27201 24.1859 2.22217 24.1859H22.9584C23.9085 24.1859 24.6859 23.4031 24.6859 22.4422V1.74376C24.6859 0.782804 23.9085 0 22.9584 0ZM7.80977 20.7308H4.22507V9.1885H7.81517V20.7308H7.80977ZM6.01742 7.61209C4.8675 7.61209 3.93894 6.67813 3.93894 5.53361C3.93894 4.3891 4.8675 3.45513 6.01742 3.45513C7.16193 3.45513 8.09589 4.3891 8.09589 5.53361C8.09589 6.68352 7.16733 7.61209 6.01742 7.61209ZM21.247 20.7308H17.6623V15.1162C17.6623 13.7773 17.6353 12.0552 15.7998 12.0552C13.9318 12.0552 13.6457 13.5128 13.6457 15.019V20.7308H10.061V9.1885H13.4999V10.7649H13.5485C14.029 9.85793 15.2005 8.90237 16.9443 8.90237C20.5722 8.90237 21.247 11.294 21.247 14.4036V20.7308Z" fill="#4B5563"/>
</svg>
