<svg width="26" height="25" viewBox="0 0 26 25" fill="none" xmlns="http://www.w3.org/2000/svg">
<path d="M22.4664 0H3.46318C2.03254 0 0.871826 1.16071 0.871826 2.59135V21.5946C0.871826 23.0252 2.03254 24.1859 3.46318 24.1859H22.4664C23.8971 24.1859 25.0578 23.0252 25.0578 21.5946V2.59135C25.0578 1.16071 23.8971 0 22.4664 0ZM19.8265 8.57305C19.8373 8.72421 19.8373 8.88077 19.8373 9.03193C19.8373 13.7126 16.2742 19.1058 9.7634 19.1058C7.7551 19.1058 5.89257 18.5228 4.32696 17.5186C4.61309 17.551 4.88842 17.5618 5.17995 17.5618C6.83733 17.5618 8.35975 17.0003 9.57444 16.0502C8.01963 16.0178 6.71316 14.9974 6.26507 13.5938C6.81034 13.6748 7.30161 13.6748 7.86307 13.529C6.24348 13.1997 5.02878 11.7744 5.02878 10.0523V10.0091C5.49847 10.2736 6.04913 10.4356 6.62678 10.4572C6.14114 10.1341 5.74301 9.6959 5.46795 9.18156C5.19288 8.66722 5.04942 8.09279 5.05038 7.50952C5.05038 6.85088 5.22314 6.24623 5.53086 5.72256C7.27462 7.87123 9.89296 9.27487 12.8298 9.42604C12.3278 7.02364 14.1255 5.07473 16.285 5.07473C17.3053 5.07473 18.2231 5.50122 18.8709 6.19225C19.6699 6.04108 20.4365 5.74416 21.1167 5.33926C20.8522 6.15985 20.2962 6.85088 19.5619 7.28817C20.2746 7.21259 20.9656 7.01284 21.6026 6.73751C21.1221 7.44473 20.5175 8.07098 19.8265 8.57305Z" fill="#4B5563"/>
</svg>
