<svg width="25" height="25" viewBox="0 0 25 25" fill="none" xmlns="http://www.w3.org/2000/svg">
<path d="M12.7789 9.21333C12.2094 9.21354 11.6527 9.38261 11.1793 9.69916C10.7059 10.0157 10.337 10.4655 10.1192 10.9917C9.90142 11.5179 9.84455 12.0969 9.95579 12.6554C10.067 13.2139 10.3414 13.7269 10.7441 14.1296C11.1469 14.5322 11.66 14.8063 12.2186 14.9174C12.7771 15.0284 13.3561 14.9713 13.8822 14.7533C14.4083 14.5353 14.858 14.1662 15.1744 13.6927C15.4907 13.2192 15.6596 12.6625 15.6596 12.093C15.659 11.3292 15.3553 10.597 14.8152 10.057C14.275 9.51706 13.5426 9.21362 12.7789 9.21333ZM19.5115 6.99988C19.3649 6.62837 19.1436 6.29095 18.8612 6.00853C18.5787 5.72612 18.2413 5.50475 17.8698 5.35816C16.7361 4.91061 14.0368 5.01102 12.7789 5.01102C11.521 5.01102 8.82437 4.90683 7.68742 5.35816C7.31591 5.50475 6.97848 5.72612 6.69607 6.00853C6.41366 6.29095 6.19229 6.62837 6.04569 6.99988C5.59868 8.1336 5.69856 10.8356 5.69856 12.0924C5.69856 13.3492 5.59868 16.048 6.04785 17.1855C6.19444 17.557 6.41581 17.8945 6.69823 18.1769C6.98064 18.4593 7.31806 18.6806 7.68958 18.8272C8.82329 19.2748 11.5226 19.1744 12.781 19.1744C14.0395 19.1744 16.735 19.2786 17.872 18.8272C18.2435 18.6806 18.5809 18.4593 18.8633 18.1769C19.1457 17.8945 19.3671 17.557 19.5137 17.1855C19.9645 16.0518 19.8608 13.3498 19.8608 12.093C19.8608 10.8362 19.9645 8.13792 19.5137 7.00042L19.5115 6.99988ZM12.7789 16.5199C11.9033 16.5199 11.0474 16.2602 10.3194 15.7738C9.59143 15.2874 9.02403 14.596 8.68897 13.7871C8.35391 12.9782 8.26624 12.0881 8.43705 11.2293C8.60786 10.3706 9.02948 9.58179 9.6486 8.96268C10.2677 8.34357 11.0565 7.92195 11.9152 7.75114C12.774 7.58033 13.6641 7.66799 14.473 8.00305C15.2819 8.33812 15.9733 8.90552 16.4597 9.63352C16.9461 10.3615 17.2058 11.2174 17.2058 12.093C17.2065 12.6745 17.0925 13.2505 16.8702 13.7879C16.648 14.3253 16.322 14.8136 15.9107 15.2248C15.4995 15.6361 15.0112 15.9621 14.4738 16.1843C13.9364 16.4065 13.3604 16.5206 12.7789 16.5199ZM17.3882 8.51366C17.1839 8.51377 16.984 8.45326 16.814 8.33978C16.644 8.22631 16.5115 8.06497 16.4332 7.87617C16.3549 7.68736 16.3344 7.47958 16.3742 7.27911C16.414 7.07863 16.5124 6.89446 16.6569 6.7499C16.8013 6.60534 16.9855 6.50687 17.1859 6.46696C17.3864 6.42704 17.5942 6.44747 17.783 6.52567C17.9718 6.60386 18.1333 6.7363 18.2468 6.90624C18.3604 7.07617 18.421 7.27597 18.421 7.48036C18.4216 7.61609 18.3953 7.7506 18.3438 7.87617C18.2923 8.00173 18.2165 8.11589 18.1207 8.21209C18.025 8.30829 17.9112 8.38465 17.7858 8.43677C17.6605 8.48889 17.5261 8.51575 17.3904 8.51582L17.3882 8.51366ZM22.2805 0H3.27726C2.58999 0 1.93087 0.273017 1.4449 0.758989C0.95893 1.24496 0.685913 1.90408 0.685913 2.59135L0.685913 21.5946C0.685913 22.2819 0.95893 22.941 1.4449 23.4269C1.93087 23.9129 2.58999 24.1859 3.27726 24.1859H22.2805C22.9678 24.1859 23.6269 23.9129 24.1129 23.4269C24.5988 22.941 24.8718 22.2819 24.8718 21.5946V2.59135C24.8718 1.90408 24.5988 1.24496 24.1129 0.758989C23.6269 0.273017 22.9678 0 22.2805 0ZM21.3562 15.6561C21.2866 17.0397 20.9708 18.2658 19.9607 19.2732C18.9506 20.2806 17.7257 20.6029 16.3436 20.6687C14.9178 20.7492 10.6432 20.7492 9.21739 20.6687C7.83372 20.5991 6.61201 20.2827 5.6003 19.2732C4.58859 18.2636 4.27061 17.037 4.20475 15.6561C4.12431 14.2298 4.12431 9.95456 4.20475 8.52986C4.27439 7.14619 4.58643 5.92016 5.6003 4.91277C6.61417 3.90538 7.83912 3.58686 9.21739 3.521C10.6432 3.44056 14.9178 3.44056 16.3436 3.521C17.7273 3.59064 18.9528 3.907 19.9607 4.91655C20.9686 5.92609 21.2904 7.15267 21.3562 8.53634C21.4367 9.95726 21.4367 14.2287 21.3562 15.6561Z" fill="#4B5563"/>
</svg>
