<svg width="15" height="18" viewBox="0 0 15 18" fill="none" xmlns="http://www.w3.org/2000/svg">
<path d="M6.7806 17.6368C1.48328 10.2316 0.5 9.47155 0.5 6.75C0.5 3.02207 3.63399 0 7.5 0C11.366 0 14.5 3.02207 14.5 6.75C14.5 9.47155 13.5167 10.2316 8.2194 17.6368C7.87177 18.1211 7.1282 18.121 6.7806 17.6368ZM7.5 9.5625C9.11084 9.5625 10.4167 8.30331 10.4167 6.75C10.4167 5.19669 9.11084 3.9375 7.5 3.9375C5.88916 3.9375 4.58333 5.19669 4.58333 6.75C4.58333 8.30331 5.88916 9.5625 7.5 9.5625Z" fill="#939CAA"/>
</svg>
