<svg width="25" height="24" viewBox="0 0 25 24" fill="none" xmlns="http://www.w3.org/2000/svg">
<path d="M0.5 0V24H24.5V0H0.5ZM20.4393 5.68393L19.1536 6.91607C19.0411 7.00179 18.9875 7.14107 19.0089 7.275V16.3446C18.9875 16.4839 19.0411 16.6232 19.1536 16.7036L20.4125 17.9357V18.2089H14.0911V17.9464L15.3929 16.6821C15.5214 16.5536 15.5214 16.5161 15.5214 16.3232V8.98929L11.9 18.1821H11.4125L7.19643 8.98929V15.15C7.15893 15.4071 7.25 15.6696 7.43214 15.8571L9.125 17.9089V18.1821H4.31429V17.9089L6.00714 15.8571C6.18929 15.6696 6.26964 15.4071 6.22679 15.15V8.025C6.24821 7.82679 6.17321 7.63393 6.02321 7.5L4.51786 5.68393V5.41071H9.19464L12.8054 13.3393L15.9821 5.41607H20.4393V5.68393Z" fill="black"/>
</svg>
